<svg xmlns="http://www.w3.org/2000/svg" version="1.1" xmlns:xlink="http://www.w3.org/1999/xlink" xmlns:svgjs="http://svgjs.dev/svgjs" width="1500" height="344" viewBox="0 0 1500 344"><g transform="matrix(1,0,0,1,-0.9090909090909918,0.1325453749639962)"><svg viewBox="0 0 396 91" data-background-color="#ffffff" preserveAspectRatio="xMidYMid meet" height="344" width="1500" xmlns="http://www.w3.org/2000/svg" xmlns:xlink="http://www.w3.org/1999/xlink"><g id="tight-bounds" transform="matrix(1,0,0,1,0.2400000000000091,-0.03506287535384445)"><svg viewBox="0 0 395.52 91.07012575070766" height="91.07012575070766" width="395.52"><g><svg viewBox="0 0 644.4273357969248 148.38207551633155" height="91.07012575070766" width="395.52"><g transform="matrix(1,0,0,1,248.9073357969248,45.8522150850696)"><svg viewBox="0 0 395.52 56.67764534619234" height="56.67764534619234" width="395.52"><g id="textblocktransform"><svg viewBox="0 0 395.52 56.67764534619234" height="56.67764534619234" width="395.52" id="textblock"><g><svg viewBox="0 0 395.52 56.67764534619234" height="56.67764534619234" width="395.52"><g transform="matrix(1,0,0,1,0,0)"><svg width="395.52" viewBox="1.56 -37.5 268.32 38.45" height="56.67764534619234" data-palette-color="#636365"><path d="M34.62-32.54L34.62-2.81 39.23-2.81 39.23-0.71Q38.35-0.24 36.34 0.1 34.33 0.44 32.37 0.44L32.37 0.44Q30.88 0.44 29.88 0.01 28.88-0.42 28.88-1.9L28.88-1.9 28.88-16.36 12.01-16.36 12.01-7.69Q12.01-4.59 12.32-2.84 12.62-1.1 12.77-0.39L12.77-0.39Q12.06 0 11.06 0.22 10.06 0.44 9.23 0.44L9.23 0.44Q7.96 0.44 7.12-0.09 6.27-0.61 6.27-2L6.27-2 6.27-31.91 1.56-31.91 1.56-33.84Q2.32-34.23 4.37-34.59 6.42-34.96 8.81-34.96L8.81-34.96 9.91-34.96Q10.86-34.96 11.44-34.86 12.01-34.77 12.01-33.69L12.01-33.69 12.01-19.8 28.88-19.8 28.88-27.05Q28.88-30.18 28.58-31.81 28.27-33.45 28.13-34.16L28.13-34.16Q28.83-34.57 29.83-34.77 30.83-34.96 31.67-34.96L31.67-34.96Q32.96-34.96 33.79-34.45 34.62-33.94 34.62-32.54L34.62-32.54ZM59.84-1.9L59.84-2.15Q59.84-2.17 59.14-1.73 58.44-1.29 57.26-0.71 56.08-0.12 54.64 0.32 53.2 0.76 51.68 0.76L51.68 0.76Q49.56 0.76 47.75-0.01 45.94-0.78 44.85-2.4 43.75-4.03 43.75-6.54L43.75-6.54Q43.75-9.35 45.37-11.04 46.99-12.72 49.85-13.46 52.71-14.21 56.39-14.21L56.39-14.21 59.84-14.21 59.84-16.04Q59.84-17.94 59.59-19.58 59.35-21.22 58.53-22.2 57.71-23.19 55.98-23.19L55.98-23.19Q54.34-23.19 52.67-22.44 51-21.68 49.48-20.61 47.97-19.53 46.75-18.55L46.75-18.55 44.75-21.24Q44.38-21.68 44.38-22.14L44.38-22.14Q44.38-22.95 45.38-23.61 46.38-24.27 47.95-24.76 49.51-25.24 51.25-25.5 53-25.76 54.49-25.76L54.49-25.76Q57.49-25.76 60-24.79 62.5-23.83 64-21.69 65.5-19.56 65.5-16.04L65.5-16.04 65.5-2.44 69.75-2.44 69.75-0.61Q68.92-0.15 67.01 0.15 65.11 0.44 63.33 0.44L63.33 0.44Q62.13 0.44 61.02 0.04 59.91-0.37 59.84-1.9L59.84-1.9ZM53.39-2.86L53.39-2.86Q54.25-2.86 55.34-3.08 56.44-3.3 57.47-3.6 58.49-3.91 59.16-4.13 59.84-4.35 59.84-4.35L59.84-4.35 59.84-11.21 55.73-11.21Q54.51-11.21 53.01-10.88 51.51-10.55 50.42-9.61 49.34-8.67 49.34-6.81L49.34-6.81Q49.34-5.08 50.39-3.97 51.44-2.86 53.39-2.86ZM81.32-36.21L81.32-2.44 85.57-2.44 85.57-0.61Q84.74-0.15 82.83 0.15 80.93 0.44 79.17 0.44L79.17 0.44Q77.68 0.44 76.68 0.01 75.68-0.42 75.68-1.9L75.68-1.9 75.68-34.64 71.36-34.64 71.36-36.5Q72.04-36.82 73.42-37.04 74.8-37.26 76.37-37.38 77.95-37.5 79.22-37.5L79.22-37.5Q80.22-37.5 80.77-37.34 81.32-37.18 81.32-36.21L81.32-36.21ZM116.89-12.45L116.89-12.45Q116.89-8.47 115.09-5.51 113.3-2.54 110.27-0.89 107.24 0.76 103.51 0.76L103.51 0.76Q99.75 0.76 96.7-0.9 93.64-2.56 91.85-5.53 90.06-8.5 90.06-12.45L90.06-12.45Q90.06-16.46 91.85-19.45 93.64-22.44 96.7-24.1 99.75-25.76 103.51-25.76L103.51-25.76Q107.27-25.76 110.3-24.1 113.32-22.44 115.1-19.45 116.89-16.46 116.89-12.45ZM96.09-12.5L96.09-12.5Q96.09-9.74 96.7-7.3 97.31-4.86 98.92-3.36 100.53-1.86 103.51-1.86L103.51-1.86Q106.49-1.86 108.07-3.36 109.66-4.86 110.26-7.3 110.86-9.74 110.86-12.5L110.86-12.5Q110.86-15.28 110.26-17.71 109.66-20.14 108.07-21.64 106.49-23.14 103.51-23.14L103.51-23.14Q100.53-23.14 98.92-21.64 97.31-20.14 96.7-17.71 96.09-15.28 96.09-12.5ZM143.13-3L143.13-3Q142.37-1.54 140.91-0.49 139.44 0.56 137.68 0.56L137.68 0.56Q137.05 0.56 136.6 0.24 136.14-0.07 135.88-0.85L135.88-0.85 134.88-3.86Q135.24-4.03 136.01-4.28 136.78-4.54 137.65-5.07 138.51-5.59 139.12-6.54L139.12-6.54Q139.66-7.35 140.17-9.53 140.69-11.72 141.15-14.7 141.61-17.68 141.97-20.87 142.32-24.07 142.54-26.99 142.76-29.91 142.79-31.91L142.79-31.91 138.02-31.91 138.02-33.84Q138.46-34.08 139.55-34.34 140.64-34.59 141.93-34.78 143.22-34.96 144.23-34.96L144.23-34.96Q146.23-34.96 147.2-34.75 148.18-34.55 148.79-33.64L148.79-33.64Q150.26-30.3 151.71-26.49 153.16-22.68 154.47-18.99 155.77-15.31 156.77-12.28 157.78-9.25 158.35-7.45 158.92-5.64 158.92-5.64L158.92-5.64Q161.32-13.01 163.37-18.99 165.42-24.98 166.93-28.94 168.44-32.91 169.18-34.16L169.18-34.16Q169.15-34.2 169.81-34.4 170.47-34.59 171.39-34.78 172.3-34.96 173.03-34.96L173.03-34.96Q174.18-34.96 174.57-34.5 174.96-34.03 175.13-33.11L175.13-33.11 179.09-3.3 183.73-4 184.17-2.2Q183.48-1.54 182.07-0.88 180.65-0.22 179.03 0.22 177.4 0.66 176.04 0.66L176.04 0.66Q175.21 0.66 174.41 0.29 173.62-0.07 173.47-1.2L173.47-1.2 170.42-26.25Q168.18-19.78 166.55-15.28 164.93-10.79 163.82-7.91 162.71-5.03 162.01-3.39 161.32-1.76 160.96-1.04 160.61-0.32 160.47-0.16 160.34 0 160.34 0L160.34 0 157.68 0Q156.53 0 155.88-0.4 155.24-0.81 154.77-2L154.77-2Q151.57-10.52 149.74-15.84 147.91-21.17 147.14-23.66 146.37-26.15 146.37-26.15L146.37-26.15Q146.2-23.05 145.97-19.68 145.74-16.31 145.37-13.11 145.01-9.91 144.47-7.28 143.93-4.64 143.13-3ZM207.41-22.66L203.11-22.66 203.11-24.51Q203.79-24.8 205.16-25.02 206.53-25.24 208.11-25.37 209.7-25.49 210.97-25.49L210.97-25.49Q211.97-25.49 212.52-25.33 213.07-25.17 213.07-24.19L213.07-24.19 213.07-2.44 217.32-2.44 217.32-0.61Q216.49-0.15 214.58 0.15 212.68 0.44 210.92 0.44L210.92 0.44Q209.43 0.44 208.42 0.01 207.41-0.42 207.41-1.9L207.41-1.9 207.41-2.1Q207.41-2.15 206.49-1.72 205.58-1.29 204.07-0.71 202.57-0.12 200.8 0.32 199.03 0.76 197.32 0.76L197.32 0.76Q194.39 0.76 192.9-0.24 191.42-1.25 190.89-3 190.37-4.76 190.37-7.01L190.37-7.01 190.37-22.66 186.07-22.66 186.07-24.51Q186.75-24.8 188.12-25.02 189.49-25.24 191.06-25.37 192.64-25.49 193.91-25.49L193.91-25.49Q194.93-25.49 195.47-25.33 196.01-25.17 196.01-24.19L196.01-24.19 196.01-7.5Q196.01-5.03 196.66-3.94 197.32-2.86 199.42-2.86L199.42-2.86Q200.35-2.86 201.71-3.08 203.06-3.3 204.37-3.58 205.67-3.86 206.55-4.08 207.43-4.3 207.41-4.3L207.41-4.3 207.41-22.66ZM220.59-22.51L220.59-24.34Q221.27-24.66 222.64-24.88 224.01-25.1 225.59-25.22 227.18-25.34 228.45-25.34L228.45-25.34Q229.45-25.34 230-25.18 230.55-25.02 230.55-24.05L230.55-24.05 230.55-18.19 233.65-22.61Q235.85-25.76 239.48-25.76L239.48-25.76Q239.92-25.76 240.62-25.67 241.32-25.59 241.88-25.29 242.44-25 242.44-24.39L242.44-24.39Q242.44-24.15 242.39-24L242.39-24 241.34-20.56Q240.41-20.85 239.67-20.97 238.92-21.09 238.29-21.09L238.29-21.09Q236.97-21.09 235.77-20.36 234.58-19.63 233.58-18.58 232.58-17.53 231.81-16.52 231.04-15.5 230.55-14.94L230.55-14.94 230.55-7.35Q230.55-4.35 230.82-2.69 231.09-1.03 231.23-0.34L231.23-0.34Q230.57 0.02 229.55 0.23 228.52 0.44 227.74 0.44L227.74 0.44Q226.5 0.44 225.69-0.06 224.88-0.56 224.88-1.9L224.88-1.9 224.88-22.51 220.59-22.51ZM245.68-12.5L245.68-12.5Q245.68-16.38 247.33-19.37 248.98-22.36 252.07-24.06 255.16-25.76 259.48-25.76L259.48-25.76Q262.72-25.76 265.06-24.41 267.39-23.07 268.63-20.9 269.88-18.73 269.88-16.21L269.88-16.21Q269.88-15.06 269.58-13.92 269.29-12.77 268.47-12.01 267.66-11.25 266.02-11.25L266.02-11.25 251.42-11.25Q251.91-6.86 254.89-4.53 257.87-2.2 262.16-2.2L262.16-2.2Q265.17-2.2 268.41-3.25L268.41-3.25 269.22-1.61Q267.24-0.27 264.7 0.34 262.16 0.95 259.72 0.95L259.72 0.95Q257.04 0.95 254.52 0.11 252.01-0.73 250.02-2.42 248.03-4.1 246.86-6.62 245.68-9.13 245.68-12.5ZM251.37-14.26L264.02-14.26Q264.16-14.75 264.21-15.23 264.26-15.72 264.26-16.26L264.26-16.26Q264.26-17.87 263.57-19.43 262.87-21 261.52-22.02 260.16-23.05 258.18-23.05L258.18-23.05Q255.69-23.05 254.24-21.81 252.79-20.58 252.14-18.58 251.49-16.58 251.37-14.26L251.37-14.26Z" opacity="1" transform="matrix(1,0,0,1,0,0)" fill="#636365" class="wordmark-text-0" data-fill-palette-color="primary" id="text-0"></path></svg></g></svg></g></svg></g></svg></g><g><svg viewBox="0 0 235.52710399417708 148.38207551633155" height="148.38207551633155" width="235.52710399417708"><g><svg xmlns="http://www.w3.org/2000/svg" xmlns:xlink="http://www.w3.org/1999/xlink" version="1.1" x="0" y="0" viewBox="0 17 100 63" enable-background="new 0 0 100 100" xml:space="preserve" height="148.38207551633155" width="235.52710399417708" class="icon-icon-0" data-fill-palette-color="accent" id="icon-0"><path fill-rule="evenodd" clip-rule="evenodd" d="M0 17v63h100V17H0zM91 70H9V39h82V70z" fill="#89939e" data-fill-palette-color="accent"></path><path fill-rule="evenodd" clip-rule="evenodd" d="M59.375 53.643v3.125H81.25v-3.125H59.375z" fill="#89939e" data-fill-palette-color="accent"></path><path fill-rule="evenodd" clip-rule="evenodd" d="M21.875 66.143v-4.861l4.688-6.076-4.688-6.076v-4.861L30 55.205 21.875 66.143z" fill="#89939e" data-fill-palette-color="accent"></path></svg></g></svg></g></svg></g><defs></defs></svg><rect width="395.52" height="91.07012575070766" fill="none" stroke="none" visibility="hidden"></rect></g></svg></g></svg>